<svg width="217" height="41" viewBox="0 0 217 41" fill="none" xmlns="http://www.w3.org/2000/svg">
<path d="M5.052 32C4.5 32 4.104 31.772 3.864 31.316C3.624 30.86 3.6 30.416 3.792 29.984L14.376 4.856C14.64 4.208 15.096 3.884 15.744 3.884C16.368 3.884 16.812 4.208 17.076 4.856L27.696 30.02C27.912 30.476 27.876 30.92 27.588 31.352C27.324 31.784 26.94 32 26.436 32C25.788 32 25.344 31.712 25.104 31.136L22.728 25.304H8.76L6.348 31.136C6.228 31.424 6.048 31.64 5.808 31.784C5.592 31.928 5.34 32 5.052 32ZM9.768 22.892H21.72L15.744 8.456L9.768 22.892ZM38.8965 12.308C39.5205 12.308 39.9765 12.62 40.2645 13.244L48.0765 30.236C48.2445 30.572 48.2565 30.896 48.1125 31.208C47.9925 31.496 47.7645 31.724 47.4285 31.892C46.6125 32.252 46.0125 32.048 45.6285 31.28L39.0045 16.448L32.2005 31.244C32.0325 31.604 31.7685 31.844 31.4085 31.964C31.0725 32.06 30.7245 32.024 30.3645 31.856C30.0285 31.688 29.7885 31.46 29.6445 31.172C29.5245 30.86 29.5365 30.536 29.6805 30.2L37.6005 13.244C37.8885 12.62 38.3205 12.308 38.8965 12.308ZM61.0686 32.36C59.4126 32.36 57.9606 32.048 56.7126 31.424C55.4646 30.8 54.4806 29.948 53.7606 28.868C53.0646 27.764 52.7166 26.48 52.7166 25.016V13.676C52.7406 13.268 52.8846 12.944 53.1486 12.704C53.4126 12.44 53.7366 12.308 54.1206 12.308C54.5046 12.308 54.8286 12.44 55.0926 12.704C55.3566 12.968 55.4886 13.304 55.4886 13.712V18.824H61.3566C62.9166 18.824 64.2846 19.1 65.4606 19.652C66.6606 20.204 67.5846 20.984 68.2326 21.992C68.9046 23 69.2406 24.164 69.2406 25.484C69.2406 26.804 68.8926 27.992 68.1966 29.048C67.5246 30.08 66.5766 30.896 65.3526 31.496C64.1286 32.072 62.7006 32.36 61.0686 32.36ZM61.0686 29.804C62.6286 29.804 63.9246 29.444 64.9566 28.724C65.9886 28.004 66.5046 26.924 66.5046 25.484C66.5046 24.14 66.0486 23.096 65.1366 22.352C64.2246 21.608 62.9646 21.236 61.3566 21.236H55.4886V25.016C55.4886 26.408 55.9926 27.56 57.0006 28.472C58.0326 29.36 59.3886 29.804 61.0686 29.804ZM75.5366 22.172C75.5366 23.636 75.8486 24.932 76.4726 26.06C77.0966 27.188 77.9486 28.076 79.0286 28.724C80.1326 29.348 81.3926 29.66 82.8086 29.66V14.648C81.3926 14.648 80.1326 14.972 79.0286 15.62C77.9486 16.268 77.0966 17.156 76.4726 18.284C75.8486 19.412 75.5366 20.708 75.5366 22.172ZM92.8526 22.172C92.8526 20.708 92.5406 19.412 91.9166 18.284C91.2926 17.156 90.4286 16.268 89.3246 15.62C88.2446 14.972 86.9966 14.648 85.5806 14.648V29.66C86.9966 29.66 88.2446 29.348 89.3246 28.724C90.4286 28.076 91.2926 27.188 91.9166 26.06C92.5406 24.932 92.8526 23.636 92.8526 22.172ZM82.8086 32.18C80.8406 32.18 79.1006 31.748 77.5886 30.884C76.1006 30.02 74.9366 28.844 74.0966 27.356C73.2566 25.844 72.8366 24.116 72.8366 22.172C72.8366 20.204 73.2566 18.476 74.0966 16.988C74.9366 15.476 76.1006 14.288 77.5886 13.424C79.1006 12.56 80.8406 12.128 82.8086 12.128V5.288C82.8086 4.856 82.9286 4.52 83.1686 4.28C83.4326 4.016 83.7686 3.884 84.1766 3.884C84.6086 3.884 84.9446 4.016 85.1846 4.28C85.4486 4.52 85.5806 4.856 85.5806 5.288V12.128C87.5246 12.128 89.2406 12.56 90.7286 13.424C92.2406 14.288 93.4286 15.476 94.2926 16.988C95.1566 18.476 95.5886 20.204 95.5886 22.172C95.5886 24.116 95.1566 25.844 94.2926 27.356C93.4526 28.844 92.2766 30.02 90.7646 30.884C89.2526 31.748 87.5246 32.18 85.5806 32.18V39.02C85.5806 39.452 85.4486 39.788 85.1846 40.028C84.9446 40.292 84.6086 40.424 84.1766 40.424C83.7686 40.424 83.4326 40.292 83.1686 40.028C82.9286 39.788 82.8086 39.452 82.8086 39.02V32.18ZM109.662 32.18C107.814 32.18 106.158 31.748 104.694 30.884C103.23 29.996 102.066 28.796 101.202 27.284C100.362 25.772 99.9421 24.068 99.9421 22.172C99.9421 20.252 100.374 18.536 101.238 17.024C102.126 15.512 103.326 14.324 104.838 13.46C106.35 12.572 108.054 12.128 109.95 12.128C111.846 12.128 113.538 12.572 115.026 13.46C116.538 14.324 117.726 15.512 118.59 17.024C119.478 18.536 119.934 20.252 119.958 22.172V30.632C119.958 31.04 119.826 31.376 119.562 31.64C119.298 31.88 118.962 32 118.554 32C118.146 32 117.81 31.88 117.546 31.64C117.282 31.376 117.15 31.04 117.15 30.632V28.436C116.334 29.588 115.278 30.5 113.982 31.172C112.686 31.844 111.246 32.18 109.662 32.18ZM109.95 29.66C111.342 29.66 112.578 29.336 113.658 28.688C114.762 28.04 115.626 27.152 116.25 26.024C116.898 24.872 117.222 23.588 117.222 22.172C117.222 20.732 116.898 19.448 116.25 18.32C115.626 17.192 114.762 16.304 113.658 15.656C112.578 14.984 111.342 14.648 109.95 14.648C108.582 14.648 107.346 14.984 106.242 15.656C105.138 16.304 104.262 17.192 103.614 18.32C102.966 19.448 102.642 20.732 102.642 22.172C102.642 23.588 102.966 24.872 103.614 26.024C104.262 27.152 105.138 28.04 106.242 28.688C107.346 29.336 108.582 29.66 109.95 29.66ZM137.66 32C137.252 32 136.916 31.868 136.652 31.604C136.388 31.34 136.256 31.004 136.256 30.596V5.288C136.256 4.88 136.388 4.544 136.652 4.28C136.916 4.016 137.252 3.884 137.66 3.884H156.812C157.22 3.884 157.556 4.016 157.82 4.28C158.084 4.544 158.216 4.88 158.216 5.288V30.596C158.216 31.004 158.084 31.34 157.82 31.604C157.556 31.868 157.22 32 156.812 32C156.404 32 156.068 31.868 155.804 31.604C155.54 31.34 155.408 31.004 155.408 30.596V6.512H139.064V30.596C139.064 31.004 138.932 31.34 138.668 31.604C138.404 31.868 138.068 32 137.66 32ZM166.805 32C166.397 32 166.061 31.868 165.797 31.604C165.533 31.34 165.401 31.004 165.401 30.596V5.288C165.401 4.88 165.533 4.544 165.797 4.28C166.061 4.016 166.397 3.884 166.805 3.884H174.005C175.781 3.884 177.353 4.28 178.721 5.072C180.089 5.84 181.157 6.908 181.925 8.276C182.693 9.644 183.077 11.228 183.077 13.028C183.077 14.78 182.693 16.34 181.925 17.708C181.157 19.052 180.089 20.12 178.721 20.912C177.353 21.68 175.781 22.064 174.005 22.064H168.209V30.596C168.209 31.004 168.077 31.34 167.813 31.604C167.549 31.868 167.213 32 166.805 32ZM168.209 19.364H174.005C175.229 19.364 176.321 19.1 177.281 18.572C178.241 18.02 178.985 17.264 179.513 16.304C180.065 15.344 180.341 14.252 180.341 13.028C180.341 11.756 180.065 10.64 179.513 9.68C178.985 8.72 178.241 7.964 177.281 7.412C176.321 6.86 175.229 6.584 174.005 6.584H168.209V19.364ZM200.44 32.36C198.352 32.36 196.432 32 194.68 31.28C192.928 30.56 191.404 29.552 190.108 28.256C188.836 26.96 187.84 25.436 187.12 23.684C186.424 21.932 186.076 20.012 186.076 17.924C186.076 15.86 186.424 13.952 187.12 12.2C187.84 10.448 188.836 8.924 190.108 7.628C191.404 6.332 192.928 5.324 194.68 4.604C196.432 3.884 198.352 3.524 200.44 3.524C202.504 3.524 204.412 3.884 206.164 4.604C207.916 5.324 209.44 6.332 210.736 7.628C212.032 8.924 213.028 10.448 213.724 12.2C214.444 13.952 214.804 15.86 214.804 17.924C214.804 20.012 214.444 21.932 213.724 23.684C213.028 25.436 212.032 26.96 210.736 28.256C209.44 29.552 207.916 30.56 206.164 31.28C204.412 32 202.504 32.36 200.44 32.36ZM200.44 29.696C202.096 29.696 203.632 29.408 205.048 28.832C206.464 28.232 207.688 27.404 208.72 26.348C209.776 25.268 210.592 24.02 211.168 22.604C211.744 21.164 212.032 19.604 212.032 17.924C212.032 16.268 211.744 14.732 211.168 13.316C210.592 11.876 209.776 10.628 208.72 9.572C207.688 8.492 206.464 7.664 205.048 7.088C203.632 6.488 202.096 6.188 200.44 6.188C198.76 6.188 197.212 6.488 195.796 7.088C194.38 7.664 193.144 8.492 192.088 9.572C191.056 10.628 190.252 11.876 189.676 13.316C189.1 14.732 188.812 16.268 188.812 17.924C188.812 19.604 189.1 21.164 189.676 22.604C190.252 24.02 191.056 25.268 192.088 26.348C193.144 27.404 194.38 28.232 195.796 28.832C197.212 29.408 198.76 29.696 200.44 29.696Z" fill="#292442"/>
<path d="M2.052 32C1.5 32 1.104 31.772 0.864 31.316C0.624 30.86 0.6 30.416 0.792 29.984L11.376 4.856C11.64 4.208 12.096 3.884 12.744 3.884C13.368 3.884 13.812 4.208 14.076 4.856L24.696 30.02C24.912 30.476 24.876 30.92 24.588 31.352C24.324 31.784 23.94 32 23.436 32C22.788 32 22.344 31.712 22.104 31.136L19.728 25.304H5.76L3.348 31.136C3.228 31.424 3.048 31.64 2.808 31.784C2.592 31.928 2.34 32 2.052 32ZM6.768 22.892H18.72L12.744 8.456L6.768 22.892ZM35.8965 12.308C36.5205 12.308 36.9765 12.62 37.2645 13.244L45.0765 30.236C45.2445 30.572 45.2565 30.896 45.1125 31.208C44.9925 31.496 44.7645 31.724 44.4285 31.892C43.6125 32.252 43.0125 32.048 42.6285 31.28L36.0045 16.448L29.2005 31.244C29.0325 31.604 28.7685 31.844 28.4085 31.964C28.0725 32.06 27.7245 32.024 27.3645 31.856C27.0285 31.688 26.7885 31.46 26.6445 31.172C26.5245 30.86 26.5365 30.536 26.6805 30.2L34.6005 13.244C34.8885 12.62 35.3205 12.308 35.8965 12.308ZM58.0686 32.36C56.4126 32.36 54.9606 32.048 53.7126 31.424C52.4646 30.8 51.4806 29.948 50.7606 28.868C50.0646 27.764 49.7166 26.48 49.7166 25.016V13.676C49.7406 13.268 49.8846 12.944 50.1486 12.704C50.4126 12.44 50.7366 12.308 51.1206 12.308C51.5046 12.308 51.8286 12.44 52.0926 12.704C52.3566 12.968 52.4886 13.304 52.4886 13.712V18.824H58.3566C59.9166 18.824 61.2846 19.1 62.4606 19.652C63.6606 20.204 64.5846 20.984 65.2326 21.992C65.9046 23 66.2406 24.164 66.2406 25.484C66.2406 26.804 65.8926 27.992 65.1966 29.048C64.5246 30.08 63.5766 30.896 62.3526 31.496C61.1286 32.072 59.7006 32.36 58.0686 32.36ZM58.0686 29.804C59.6286 29.804 60.9246 29.444 61.9566 28.724C62.9886 28.004 63.5046 26.924 63.5046 25.484C63.5046 24.14 63.0486 23.096 62.1366 22.352C61.2246 21.608 59.9646 21.236 58.3566 21.236H52.4886V25.016C52.4886 26.408 52.9926 27.56 54.0006 28.472C55.0326 29.36 56.3886 29.804 58.0686 29.804ZM72.5366 22.172C72.5366 23.636 72.8486 24.932 73.4726 26.06C74.0966 27.188 74.9486 28.076 76.0286 28.724C77.1326 29.348 78.3926 29.66 79.8086 29.66V14.648C78.3926 14.648 77.1326 14.972 76.0286 15.62C74.9486 16.268 74.0966 17.156 73.4726 18.284C72.8486 19.412 72.5366 20.708 72.5366 22.172ZM89.8526 22.172C89.8526 20.708 89.5406 19.412 88.9166 18.284C88.2926 17.156 87.4286 16.268 86.3246 15.62C85.2446 14.972 83.9966 14.648 82.5806 14.648V29.66C83.9966 29.66 85.2446 29.348 86.3246 28.724C87.4286 28.076 88.2926 27.188 88.9166 26.06C89.5406 24.932 89.8526 23.636 89.8526 22.172ZM79.8086 32.18C77.8406 32.18 76.1006 31.748 74.5886 30.884C73.1006 30.02 71.9366 28.844 71.0966 27.356C70.2566 25.844 69.8366 24.116 69.8366 22.172C69.8366 20.204 70.2566 18.476 71.0966 16.988C71.9366 15.476 73.1006 14.288 74.5886 13.424C76.1006 12.56 77.8406 12.128 79.8086 12.128V5.288C79.8086 4.856 79.9286 4.52 80.1686 4.28C80.4326 4.016 80.7686 3.884 81.1766 3.884C81.6086 3.884 81.9446 4.016 82.1846 4.28C82.4486 4.52 82.5806 4.856 82.5806 5.288V12.128C84.5246 12.128 86.2406 12.56 87.7286 13.424C89.2406 14.288 90.4286 15.476 91.2926 16.988C92.1566 18.476 92.5886 20.204 92.5886 22.172C92.5886 24.116 92.1566 25.844 91.2926 27.356C90.4526 28.844 89.2766 30.02 87.7646 30.884C86.2526 31.748 84.5246 32.18 82.5806 32.18V39.02C82.5806 39.452 82.4486 39.788 82.1846 40.028C81.9446 40.292 81.6086 40.424 81.1766 40.424C80.7686 40.424 80.4326 40.292 80.1686 40.028C79.9286 39.788 79.8086 39.452 79.8086 39.02V32.18ZM106.662 32.18C104.814 32.18 103.158 31.748 101.694 30.884C100.23 29.996 99.0661 28.796 98.2021 27.284C97.3621 25.772 96.9421 24.068 96.9421 22.172C96.9421 20.252 97.3741 18.536 98.2381 17.024C99.1261 15.512 100.326 14.324 101.838 13.46C103.35 12.572 105.054 12.128 106.95 12.128C108.846 12.128 110.538 12.572 112.026 13.46C113.538 14.324 114.726 15.512 115.59 17.024C116.478 18.536 116.934 20.252 116.958 22.172V30.632C116.958 31.04 116.826 31.376 116.562 31.64C116.298 31.88 115.962 32 115.554 32C115.146 32 114.81 31.88 114.546 31.64C114.282 31.376 114.15 31.04 114.15 30.632V28.436C113.334 29.588 112.278 30.5 110.982 31.172C109.686 31.844 108.246 32.18 106.662 32.18ZM106.95 29.66C108.342 29.66 109.578 29.336 110.658 28.688C111.762 28.04 112.626 27.152 113.25 26.024C113.898 24.872 114.222 23.588 114.222 22.172C114.222 20.732 113.898 19.448 113.25 18.32C112.626 17.192 111.762 16.304 110.658 15.656C109.578 14.984 108.342 14.648 106.95 14.648C105.582 14.648 104.346 14.984 103.242 15.656C102.138 16.304 101.262 17.192 100.614 18.32C99.9661 19.448 99.6421 20.732 99.6421 22.172C99.6421 23.588 99.9661 24.872 100.614 26.024C101.262 27.152 102.138 28.04 103.242 28.688C104.346 29.336 105.582 29.66 106.95 29.66ZM134.66 32C134.252 32 133.916 31.868 133.652 31.604C133.388 31.34 133.256 31.004 133.256 30.596V5.288C133.256 4.88 133.388 4.544 133.652 4.28C133.916 4.016 134.252 3.884 134.66 3.884H153.812C154.22 3.884 154.556 4.016 154.82 4.28C155.084 4.544 155.216 4.88 155.216 5.288V30.596C155.216 31.004 155.084 31.34 154.82 31.604C154.556 31.868 154.22 32 153.812 32C153.404 32 153.068 31.868 152.804 31.604C152.54 31.34 152.408 31.004 152.408 30.596V6.512H136.064V30.596C136.064 31.004 135.932 31.34 135.668 31.604C135.404 31.868 135.068 32 134.66 32ZM163.805 32C163.397 32 163.061 31.868 162.797 31.604C162.533 31.34 162.401 31.004 162.401 30.596V5.288C162.401 4.88 162.533 4.544 162.797 4.28C163.061 4.016 163.397 3.884 163.805 3.884H171.005C172.781 3.884 174.353 4.28 175.721 5.072C177.089 5.84 178.157 6.908 178.925 8.276C179.693 9.644 180.077 11.228 180.077 13.028C180.077 14.78 179.693 16.34 178.925 17.708C178.157 19.052 177.089 20.12 175.721 20.912C174.353 21.68 172.781 22.064 171.005 22.064H165.209V30.596C165.209 31.004 165.077 31.34 164.813 31.604C164.549 31.868 164.213 32 163.805 32ZM165.209 19.364H171.005C172.229 19.364 173.321 19.1 174.281 18.572C175.241 18.02 175.985 17.264 176.513 16.304C177.065 15.344 177.341 14.252 177.341 13.028C177.341 11.756 177.065 10.64 176.513 9.68C175.985 8.72 175.241 7.964 174.281 7.412C173.321 6.86 172.229 6.584 171.005 6.584H165.209V19.364ZM197.44 32.36C195.352 32.36 193.432 32 191.68 31.28C189.928 30.56 188.404 29.552 187.108 28.256C185.836 26.96 184.84 25.436 184.12 23.684C183.424 21.932 183.076 20.012 183.076 17.924C183.076 15.86 183.424 13.952 184.12 12.2C184.84 10.448 185.836 8.924 187.108 7.628C188.404 6.332 189.928 5.324 191.68 4.604C193.432 3.884 195.352 3.524 197.44 3.524C199.504 3.524 201.412 3.884 203.164 4.604C204.916 5.324 206.44 6.332 207.736 7.628C209.032 8.924 210.028 10.448 210.724 12.2C211.444 13.952 211.804 15.86 211.804 17.924C211.804 20.012 211.444 21.932 210.724 23.684C210.028 25.436 209.032 26.96 207.736 28.256C206.44 29.552 204.916 30.56 203.164 31.28C201.412 32 199.504 32.36 197.44 32.36ZM197.44 29.696C199.096 29.696 200.632 29.408 202.048 28.832C203.464 28.232 204.688 27.404 205.72 26.348C206.776 25.268 207.592 24.02 208.168 22.604C208.744 21.164 209.032 19.604 209.032 17.924C209.032 16.268 208.744 14.732 208.168 13.316C207.592 11.876 206.776 10.628 205.72 9.572C204.688 8.492 203.464 7.664 202.048 7.088C200.632 6.488 199.096 6.188 197.44 6.188C195.76 6.188 194.212 6.488 192.796 7.088C191.38 7.664 190.144 8.492 189.088 9.572C188.056 10.628 187.252 11.876 186.676 13.316C186.1 14.732 185.812 16.268 185.812 17.924C185.812 19.604 186.1 21.164 186.676 22.604C187.252 24.02 188.056 25.268 189.088 26.348C190.144 27.404 191.38 28.232 192.796 28.832C194.212 29.408 195.76 29.696 197.44 29.696Z" fill="#2383BF"/>
</svg>
